<svg width="21" height="24" viewBox="0 0 21 24" fill="none" xmlns="http://www.w3.org/2000/svg">
<g clip-path="url(#clip0_1320_11387)">
<path d="M10.4443 17.1418C10.525 17.1005 10.6197 17.1041 10.6944 17.139C10.7695 17.1741 10.8139 17.2344 10.8139 17.3002V22.0057C10.8139 22.0638 10.776 22.126 10.6996 22.1637L7.09893 23.8669C7.01382 23.9071 6.918 23.9028 6.84437 23.8687C6.77065 23.8345 6.72754 23.7754 6.72754 23.7092V19.0819C6.72754 19.0237 6.76533 18.9613 6.84186 18.9237L10.4434 17.1422L10.4443 17.1418Z" fill="#090CD2" stroke="#090CD2" stroke-width="0.1"/>
<path d="M11.6568 0.0670319C12.0035 0.0670319 12.3399 0.154846 12.6404 0.326547C13.8937 1.04265 17.5286 3.11942 19.5167 4.25332C20.3549 4.73144 20.8749 5.64375 20.8539 6.60112L20.8334 7.53613C20.8146 8.38777 20.3607 9.16823 19.623 9.6078L19.2461 9.83249C15.7716 11.9026 7.55869 16.796 7.47841 16.842C7.3572 16.9114 7.2015 16.9 7.09643 16.8025C7.01456 16.7267 0.294344 10.5262 0.169955 10.4133C0.0141638 10.272 0.0389153 10.0143 0.228964 9.91052C0.376404 9.83002 2.74726 8.4749 2.84523 8.41876C2.96906 8.34782 3.12528 8.36753 3.22866 8.46983L7.26222 12.4615C7.32243 12.5211 7.41169 12.5317 7.48211 12.4914C7.56781 12.4424 14.0392 8.95364 16.0296 7.88063C16.3641 7.70035 16.5711 7.35424 16.5712 6.97717C16.5712 6.57928 16.3412 6.21792 15.9782 6.04752C15.3372 5.74673 14.3191 5.26873 13.4533 4.86151C13.0204 4.6579 12.6255 4.47197 12.3349 4.33475C12.0467 4.19864 11.8568 4.10851 11.8384 4.09828C11.7765 4.06386 11.7055 4.06484 11.6509 4.09724C11.6126 4.11999 11.3787 4.25911 11.1448 4.39825C10.911 4.53737 10.677 4.67649 10.6386 4.69927C10.5821 4.73281 10.5489 4.79208 10.5489 4.85431V8.69963C10.5489 8.80937 10.4902 8.91208 10.3933 8.96961C10.3189 9.01378 7.64314 10.5409 7.4841 10.6343C7.27526 10.757 7.00861 10.6083 7.00858 10.3642V2.89132C7.0086 2.78155 7.06729 2.67886 7.16417 2.62133C7.22408 2.58573 9.67259 1.00523 10.6821 0.353388C10.9726 0.165849 11.3102 0.0670378 11.6568 0.0670319Z" fill="#090CD2" stroke="#090CD2" stroke-width="0.1"/>
</g>
<defs>
<clipPath id="clip0_1320_11387">
<rect width="21" height="24" fill="white"/>
</clipPath>
</defs>
</svg>
