<svg width="129" height="37" viewBox="0 0 129 37" fill="none" xmlns="http://www.w3.org/2000/svg">
<path d="M39.8369 24.7129V6.65053H42.7332V24.7129H39.8369ZM41.826 17.9016V15.3162H46.2401C46.8508 15.3162 47.3743 15.1914 47.8452 14.9417C48.3164 14.6921 48.6828 14.3355 48.9444 13.8897C49.2063 13.4261 49.3457 12.8912 49.3457 12.285C49.3457 11.6787 49.2063 11.126 48.9444 10.6802C48.6828 10.2166 48.3164 9.87785 47.8452 9.62823C47.3743 9.3786 46.8508 9.25378 46.2401 9.25378H41.826V6.66834H46.3972C47.5137 6.66834 48.5081 6.90015 49.3807 7.36375C50.2529 7.82733 50.9684 8.48706 51.4743 9.32511C51.9801 10.1631 52.242 11.1617 52.242 12.285C52.242 13.4261 51.9801 14.4068 51.4743 15.2449C50.9684 16.0829 50.2705 16.7426 49.3807 17.2062C48.4908 17.6698 47.4964 17.9016 46.3972 17.9016H41.826Z" fill="#4F46E5"/>
<path d="M59.1673 24.9801C58.0681 24.9801 57.091 24.6948 56.2012 24.1244C55.3113 23.5537 54.6134 22.7871 54.1076 21.8063C53.6014 20.8436 53.3398 19.738 53.3398 18.5434C53.3398 17.3309 53.6014 16.2254 54.1076 15.2625C54.6134 14.2997 55.3113 13.5151 56.2012 12.9445C57.091 12.374 58.0681 12.0887 59.1673 12.0887C60.0919 12.0887 60.9119 12.2848 61.6273 12.6949C62.3425 13.105 62.9183 13.6578 63.3372 14.3532C63.7559 15.0664 63.9652 15.8509 63.9652 16.7603V20.3265C63.9652 21.218 63.7559 22.0204 63.3545 22.7335C62.9359 23.4468 62.3775 23.9996 61.6447 24.3919C60.9295 24.7663 60.0919 24.9801 59.1673 24.9801ZM59.6209 22.2879C60.6503 22.2879 61.4703 21.9311 62.1159 21.2359C62.7439 20.5225 63.058 19.6311 63.058 18.5255C63.058 17.7945 62.9183 17.1347 62.6217 16.5642C62.3425 15.9936 61.9412 15.5478 61.418 15.2269C60.9119 14.9059 60.3012 14.7455 59.6209 14.7455C58.9404 14.7455 58.3471 14.9059 57.8412 15.2269C57.3353 15.5478 56.9164 15.9936 56.6374 16.5642C56.3406 17.1347 56.2012 17.7945 56.2012 18.5255C56.2012 19.2567 56.3406 19.9164 56.6374 20.4868C56.934 21.0575 57.3353 21.5033 57.8412 21.8241C58.3647 22.1273 58.9577 22.2879 59.6209 22.2879ZM62.8833 24.7127V21.3785L63.3545 18.365L62.8833 15.3695V12.3205H65.6575V24.7127H62.8833Z" fill="#4F46E5"/>
<path d="M72.6545 24.8376L67.4727 12.3206H70.5433L74.0852 21.5035H73.1953L76.9289 12.3206H80.0172L74.3817 24.8376H72.6545ZM69.0428 29.8837L72.8116 21.9491L74.3817 24.8376L72.1311 29.8658H69.0428V29.8837Z" fill="#4F46E5"/>
<path d="M80.8896 9.36076V6.65053H95.3011V9.36076H80.8896ZM86.6473 24.7129V7.16759H89.5435V24.7129H86.6473Z" fill="#4F46E5"/>
<path d="M96.2443 30.1334C95.3893 30.1334 94.6915 29.9907 94.1331 29.7233C93.5923 29.4558 93.0864 29.0457 92.6328 28.5107L94.4299 26.6742C94.6392 26.9417 94.8659 27.1556 95.1102 27.2806C95.3544 27.4054 95.6685 27.4766 96.0523 27.4766C96.5059 27.4766 96.8899 27.334 97.2214 27.0486C97.5528 26.7633 97.7099 26.3534 97.7099 25.8006V12.3385H100.484V25.7828C100.484 26.7278 100.292 27.5302 99.8907 28.1721C99.4894 28.8139 98.9835 29.3131 98.3379 29.6342C97.6923 29.9729 96.9944 30.1334 96.2443 30.1334ZM99.1406 10.0561C98.6694 10.0561 98.2856 9.89569 97.9715 9.57473C97.6576 9.25378 97.5006 8.84367 97.5006 8.36226C97.5006 7.88082 97.6576 7.47071 97.9715 7.14978C98.2856 6.82882 98.6694 6.65053 99.1406 6.65053C99.6291 6.65053 100.03 6.81098 100.327 7.14978C100.623 7.47071 100.781 7.88082 100.781 8.36226C100.781 8.84367 100.623 9.25378 100.327 9.57473C100.03 9.89569 99.6291 10.0561 99.1406 10.0561Z" fill="#4F46E5"/>
<path d="M109.19 24.9804C107.986 24.9804 106.887 24.6951 105.928 24.1425C104.968 23.5897 104.2 22.8052 103.624 21.8244C103.066 20.8439 102.787 19.7383 102.787 18.5258C102.787 17.3133 103.066 16.2078 103.624 15.2449C104.183 14.2821 104.933 13.4976 105.893 12.927C106.835 12.3564 107.899 12.0711 109.068 12.0711C110.202 12.0711 111.197 12.3386 112.052 12.8735C112.924 13.4084 113.604 14.1394 114.093 15.0666C114.581 15.9938 114.843 17.0458 114.843 18.2405C114.843 18.4545 114.826 18.6506 114.808 18.8647C114.791 19.0785 114.738 19.3103 114.686 19.5777H104.741V17.2598H113.255L112.226 18.187C112.191 17.4381 112.052 16.7962 111.79 16.2791C111.546 15.762 111.179 15.3698 110.726 15.0845C110.255 14.817 109.696 14.6744 109.016 14.6744C108.3 14.6744 107.69 14.8348 107.166 15.138C106.643 15.4411 106.242 15.8869 105.962 16.4396C105.683 16.9923 105.526 17.6699 105.526 18.4366C105.526 19.2033 105.683 19.8988 105.98 20.4692C106.276 21.0577 106.713 21.5036 107.271 21.8244C107.829 22.1455 108.458 22.3057 109.19 22.3057C109.818 22.3057 110.394 22.1988 110.918 21.9671C111.441 21.7353 111.895 21.4143 112.261 20.9863L114.023 22.8231C113.43 23.5361 112.715 24.0532 111.877 24.4276C111.022 24.7844 110.132 24.9804 109.19 24.9804Z" fill="#4F46E5"/>
<path d="M117.04 24.7127V6.1333H119.814V24.7127H117.04ZM124.734 24.7127L119.605 18.3829L124.699 12.3205H128.014L122.152 19.1317L122.274 17.5092L128.258 24.7127H124.734Z" fill="#4F46E5"/>
<path d="M15.699 25.9944C15.8097 25.937 15.9408 25.9418 16.0443 25.9906C16.1487 26.04 16.2045 26.1218 16.2045 26.2056V33.3143C16.2045 33.3877 16.1571 33.4719 16.0514 33.5245L10.6686 36.0973C10.5504 36.1535 10.4173 36.1477 10.3154 36.0999C10.2134 36.0519 10.1592 35.9725 10.1592 35.8882V28.897L10.1615 28.8688C10.1721 28.8029 10.2199 28.7328 10.3123 28.6869L10.3126 28.6866L15.6972 25.9952L15.699 25.9944Z" fill="#4F46E5" stroke="#4F46E5" stroke-width="0.275229"/>
<path d="M17.4968 0.137619C18.0205 0.137646 18.5291 0.271725 18.9832 0.533965C20.7304 1.54284 25.5742 4.33945 28.6304 6.10142C30.2808 7.05296 31.3043 8.89331 31.263 10.7967C31.2262 12.49 30.3307 14.0652 28.8779 14.9397L28.8563 14.9527C23.6592 18.0817 11.3813 25.4735 11.2652 25.5407C11.0726 25.6522 10.8245 25.6343 10.6564 25.477C10.534 25.3621 0.484656 15.993 0.300629 15.8243C0.0520684 15.5964 0.0912684 15.1808 0.395162 15.0131C0.615242 14.8917 4.15967 12.8443 4.30613 12.7595C4.50386 12.645 4.75333 12.6771 4.9181 12.8418L10.9488 18.8725C11.0286 18.9522 11.146 18.9661 11.2387 18.9125C11.3635 18.8402 21.043 13.5673 24.0192 11.9462C24.5088 11.6795 24.812 11.1674 24.812 10.6095C24.812 10.0207 24.4752 9.48605 23.9438 9.23395C22.9856 8.77952 21.4635 8.05723 20.1688 7.44203C19.5216 7.13443 18.9312 6.85352 18.4968 6.64619C18.0672 6.44121 17.7815 6.30417 17.7525 6.28787C17.6694 6.24115 17.5754 6.24339 17.5043 6.28606C17.4471 6.3204 17.0973 6.53051 16.7475 6.74072C16.3979 6.95088 16.0481 7.16126 15.9908 7.19568C15.916 7.24059 15.872 7.31958 15.872 7.40219V13.2118C15.872 13.389 15.7783 13.5546 15.6238 13.6472C15.5113 13.7147 11.5107 16.0217 11.2744 16.1621C10.9407 16.3602 10.515 16.12 10.515 15.7264V4.43657C10.515 4.2594 10.6087 4.09382 10.7631 4.00116C10.7631 4.00116 10.7637 4.00094 10.7642 4.00062C10.765 4.00012 10.7662 3.99945 10.7676 3.99854C10.7704 3.99678 10.7741 3.99425 10.7788 3.99126C10.7882 3.98526 10.801 3.9771 10.8171 3.96678C10.8491 3.94614 10.8938 3.91732 10.9496 3.8811C11.0614 3.80865 11.2178 3.707 11.4077 3.58345C11.7875 3.33633 12.3013 3.00156 12.8593 2.63788C13.9751 1.91055 15.268 1.06714 16.0217 0.575378C16.4613 0.288632 16.9723 0.137619 17.4968 0.137619Z" fill="#4F46E5" stroke="#4F46E5" stroke-width="0.275229"/>
</svg>
